<svg xmlns="http://www.w3.org/2000/svg" viewBox="0 0 64 64" role="img" aria-label="Pathly">
  <rect width="64" height="64" rx="16" fill="#eef7ff"/>
  <path
    d="M16 45c7-3 8-12 13-18 5-7 13-9 22-8"
    fill="none"
    stroke="#0b2f6f"
    stroke-width="8"
    stroke-linecap="round"
  />
  <path
    d="M18 30c4-11 14-18 28-12 9 4 8 19-1 24-7 4-17 2-25 8"
    fill="none"
    stroke="#0b2f6f"
    stroke-width="8"
    stroke-linecap="round"
  />
  <path
    d="M18 45c7-3 8-12 13-18 5-7 13-9 22-8"
    fill="none"
    stroke="#1677ff"
    stroke-width="3.4"
    stroke-linecap="round"
    stroke-dasharray="1 6"
  />
  <circle cx="15" cy="46" r="6.5" fill="#0b2f6f"/>
  <circle cx="15" cy="46" r="2.4" fill="#ffffff"/>
  <circle cx="49" cy="19" r="7" fill="#0b2f6f"/>
  <path d="M47 16h4l-2.8 2 2.8 2h-4v-4z" fill="#ffffff"/>
</svg>
